<?xml version="1.0" encoding="UTF-8" standalone="no"?>
<svg
   xmlns:dc="http://purl.org/dc/elements/1.1/"
   xmlns:cc="http://creativecommons.org/ns#"
   xmlns:rdf="http://www.w3.org/1999/02/22-rdf-syntax-ns#"
   xmlns:svg="http://www.w3.org/2000/svg"
   xmlns="http://www.w3.org/2000/svg"
   viewBox="0 0 533.33331 533.33331"
   height="533.33331"
   width="533.33331"
   xml:space="preserve"
   id="svg2"
   version="1.1"><metadata
     id="metadata8"><rdf:RDF><cc:Work
         rdf:about=""><dc:format>image/svg+xml</dc:format><dc:type
           rdf:resource="http://purl.org/dc/dcmitype/StillImage" /></cc:Work></rdf:RDF></metadata><defs
     id="defs6" /><g
     transform="matrix(1.3333333,0,0,-1.3333333,0,533.33333)"
     id="g10"><g
       transform="scale(0.1)"
       id="g12"><path
         id="path14"
         style="fill:#ffffff;fill-opacity:1;fill-rule:nonzero;stroke:none"
         d="m 2500,1999.13 c -0.09,-148.62 -27.27,-290.89 -76.81,-422.24 -131.31,-49.53 -273.65,-76.78 -422.33,-76.89 h -1.72 c -148.61,0.11 -290.91,27.27 -422.22,76.8 -49.54,131.34 -76.82,273.67 -76.92,422.33 v 1.73 c 0.1,148.62 27.32,290.9 76.78,422.23 131.38,49.55 273.69,76.82 422.36,76.91 h 1.72 c 148.68,-0.09 291.02,-27.36 422.33,-76.91 49.54,-131.33 76.72,-273.61 76.81,-422.23 z m 1472.2,334.2 H 2804.74 l 825.5,825.51 c -64.88,91.12 -137.22,176.58 -216.12,255.47 l -0.04,0.05 c -78.83,78.8 -164.21,151.05 -255.24,215.88 l -825.51,-825.5 v 1167.45 c -108.08,18.14 -219.04,27.75 -332.27,27.81 h -2.13 c -113.22,-0.06 -224.18,-9.67 -332.27,-27.81 V 2804.73 l -825.504,825.51 c -91.074,-64.85 -176.488,-137.15 -255.34,-216 l -0.285,-0.28 C 506.77,3335.17 434.555,3249.84 369.766,3158.84 L 1195.28,2333.33 H 27.8008 c 0,0 -27.7617375,-219.27 -27.8008,-332.6 v -1.43 C 0.0390625,1885.95 9.65625,1774.85 27.8086,1666.67 H 1195.26 L 369.77,841.172 C 499.496,659 658.992,499.488 841.168,369.762 L 1666.66,1195.25 V 27.8086 C 1774.63,9.69922 1885.48,0.0820313 1998.58,0 h 2.86 c 113.09,0.0820313 223.93,9.69922 331.89,27.8008 V 1195.27 l 825.52,-825.5 c 91.05,64.832 176.43,137.101 255.27,215.921 l 0.2,0.188 c 78.81,78.84 151.08,164.23 215.91,255.269 l -825.5,825.522 h 1167.46 c 18.11,107.96 27.73,218.81 27.81,331.91 v 2.86 c -0.08,113.09 -9.7,223.93 -27.8,331.89" /></g></g></svg>